HIERARCHY
ROOT Hips
{
	OFFSET	0.00	0.00	0.00
	CHANNELS 6 Xposition Yposition Zposition Zrotation Xrotation Yrotation
	JOINT LeftUpLeg
	{
		OFFSET	 0.126116	-0.065224	 0.014019
		CHANNELS 3 Zrotation Xrotation Yrotation
		JOINT LeftLeg
		{
			OFFSET	 0.000000	 0.569914	 0.000000
			CHANNELS 3 Zrotation Xrotation Yrotation
			JOINT LeftFoot
			{
				OFFSET	 0.000000	 0.544423	 0.000000
				CHANNELS 3 Zrotation Xrotation Yrotation
				JOINT LeftToeBase
				{
					OFFSET	 0.000000	 0.207117	 0.000000
					CHANNELS 3 Zrotation Xrotation Yrotation
					End Site
					{
						OFFSET	 0.000000	 0.207117	 0.000000
					}
				}
			}
		}
	}
	JOINT RightUpLeg
	{
		OFFSET	-0.124023	-0.065224	 0.008373
		CHANNELS 3 Zrotation Xrotation Yrotation
		JOINT RightLeg
		{
			OFFSET	 0.000000	 0.570047	 0.000000
			CHANNELS 3 Zrotation Xrotation Yrotation
			JOINT RightFoot
			{
				OFFSET	 0.000000	 0.544354	 0.000000
				CHANNELS 3 Zrotation Xrotation Yrotation
				JOINT RightToeBase
				{
					OFFSET	 0.000000	 0.207540	 0.000000
					CHANNELS 3 Zrotation Xrotation Yrotation
					End Site
					{
						OFFSET	 0.000000	 0.207540	 0.000000
					}
				}
			}
		}
	}
	JOINT Spine
	{
		OFFSET	 0.000184	 0.117403	 0.007763
		CHANNELS 3 Zrotation Xrotation Yrotation
		JOINT Spine1
		{
			OFFSET	 0.000000	 0.137269	 0.000000
			CHANNELS 3 Zrotation Xrotation Yrotation
			JOINT Spine2
			{
				OFFSET	 0.000000	 0.156879	 0.000000
				CHANNELS 3 Zrotation Xrotation Yrotation
				JOINT LeftShoulder
				{
					OFFSET	 0.080501	 0.160143	 0.002496
					CHANNELS 3 Zrotation Xrotation Yrotation
					JOINT LeftArm
					{
						OFFSET	 0.000000	 0.164363	 0.000000
						CHANNELS 3 Zrotation Xrotation Yrotation
						JOINT LeftForeArm
						{
							OFFSET	 0.000000	 0.364576	 0.000000
							CHANNELS 3 Zrotation Xrotation Yrotation
							JOINT LeftHand
							{
								OFFSET	 0.000000	 0.360812	 0.000000
								CHANNELS 3 Zrotation Xrotation Yrotation
								JOINT LeftHandIndex1
								{
									OFFSET	 0.000000	 0.086006	 0.000000
									CHANNELS 3 Zrotation Xrotation Yrotation
									JOINT LeftHandIndex2
									{
										OFFSET	 0.000000	 0.047237	 0.000000
										CHANNELS 3 Zrotation Xrotation Yrotation
										JOINT LeftHandIndex3
										{
											OFFSET	-0.004284	 0.038165	 0.000551
											CHANNELS 3 Zrotation Xrotation Yrotation
											End Site
											{
												OFFSET	-0.004284	 0.038165	 0.000551
											}
										}
									}
								}
							}
						}
					}
				}
				JOINT Neck
				{
					OFFSET	 0.000000	 0.176489	 0.000000
					CHANNELS 3 Zrotation Xrotation Yrotation
					JOINT Head
					{
						OFFSET	 0.000000	 0.077941	 0.001747
						CHANNELS 3 Zrotation Xrotation Yrotation
						End Site
						{
							OFFSET	 0.000000	 0.077941	 0.001747
						}
					}
				}
				JOINT RightShoulder
				{
					OFFSET	-0.080363	 0.159706	-0.000306
					CHANNELS 3 Zrotation Xrotation Yrotation
					JOINT RightArm
					{
						OFFSET	 0.000000	 0.164196	 0.000000
						CHANNELS 3 Zrotation Xrotation Yrotation
						JOINT RightForeArm
						{
							OFFSET	 0.000000	 0.365611	 0.000000
							CHANNELS 3 Zrotation Xrotation Yrotation
							JOINT RightHand
							{
								OFFSET	 0.000000	 0.360648	 0.000000
								CHANNELS 3 Zrotation Xrotation Yrotation
								JOINT RightHandIndex1
								{
									OFFSET	 0.000000	 0.069977	 0.000000
									CHANNELS 3 Zrotation Xrotation Yrotation
									JOINT RightHandIndex2
									{
										OFFSET	 0.000000	 0.052305	 0.000000
										CHANNELS 3 Zrotation Xrotation Yrotation
										JOINT RightHandIndex3
										{
											OFFSET	 0.009002	 0.042196	 0.000782
											CHANNELS 3 Zrotation Xrotation Yrotation
											End Site
											{
												OFFSET	 0.009002	 0.042196	 0.000782
											}
										}
									}
								}
							}
						}
					}
				}
			}
		}
	}
}
MOTION
Frames:    13
Frame Time: 0.03333334
 0.002557	 1.271201	 0.064274	-0.267427	-0.485309	-179.997700	-175.711600	 1.357528	-25.103850	 2.135711	-9.976877	-0.071014	-5.058770	 68.809250	 4.496902	 1.292262	 28.425850	-2.713146	 174.980000	 2.549726	 25.093210	-2.504204	-11.998060	 0.003043	 5.222683	 69.806680	-4.613627	-1.288183	 28.361890	 2.710176	-1.297616	 2.030042	 42.397530	-2.098242	 3.194345	 4.672774	 1.954134	-4.039548	-13.613810	-101.478000	 1.740668	 90.353360	 26.216270	 55.088760	-20.158280	 10.812490	 4.395264	-7.167206	 2.743383	 12.433750	 27.406420	-6.580301	 5.266122	 0.000000	 0.000000	 0.000000	 0.000000	 0.000000	 0.000000	 0.000000	 0.089846	-3.783161	 0.005928	 0.024673	 0.836236	-3.380023	 101.796200	-0.213321	-89.955440	-84.659390	 11.804930	 65.662760	-43.214910	 37.678970	 21.738180	 50.026850	-59.529710	-29.285130	 15.208500	 5.323790	 0.000000	 0.000000	 0.000000	 0.000000	 0.000000	 0.000000	 0.000000
 0.002578	 1.271198	 0.064237	-0.283137	-0.463678	-179.997200	-175.732300	 1.310343	-25.103930	 2.125551	-9.930385	-0.072764	-5.056671	 68.788070	 4.498996	 1.292262	 28.425850	-2.713146	 174.963900	 2.531941	 25.091890	-2.507358	-12.012730	 0.002386	 5.226577	 69.817670	-4.615825	-1.288183	 28.361890	 2.710176	-1.519522	 1.952865	 48.477630	-2.210474	 3.067438	 4.942889	 2.077092	-3.866013	-14.429990	-101.478000	 1.740697	 90.353400	 26.031200	 54.609810	-19.944460	 11.677450	 4.408686	-8.008946	 3.045070	 12.678740	 29.117510	-6.580301	 5.266122	 0.000000	 0.000000	 0.000000	 0.000000	 0.000000	 0.000000	 0.000000	 0.089846	-3.783161	 0.005928	 0.024979	 0.797604	-3.587468	 101.796200	-0.213319	-89.955440	-106.528100	 2.444899	 65.537220	-15.140660	 9.015408	 4.963604	 25.022850	-50.523690	-56.015970	 15.208500	 5.323790	 0.000000	 0.000000	 0.000000	 0.000000	 0.000000	 0.000000	 0.000000
 0.002577	 1.271195	 0.064198	-0.291351	-0.441675	-179.996900	-175.744100	 1.271941	-25.103790	 2.119615	-9.903206	-0.073787	-5.056850	 68.777230	 4.501687	 1.292262	 28.425850	-2.713146	 174.956600	 2.505971	 25.090940	-2.507059	-12.011340	 0.002452	 5.229765	 69.820210	-4.618612	-1.288183	 28.361890	 2.710176	-1.179860	 2.234321	 38.818790	-2.265574	 2.975129	 5.077114	 2.141719	-3.741196	-14.841790	-101.478000	 1.740687	 90.353390	 26.001360	 54.357960	-19.934540	 12.457330	 4.423218	-8.767155	 3.280467	 12.406980	 30.014020	-6.580301	 5.266122	 0.000000	 0.000000	 0.000000	 0.000000	 0.000000	 0.000000	 0.000000	 0.089846	-3.783161	 0.005928	 0.025191	 0.781475	-3.692575	 101.796200	-0.213308	-89.955460	-109.819500	-0.354949	 60.219990	-13.076360	 5.199511	 3.911196	 17.467820	-51.466560	-69.878790	 15.208500	 5.323790	 0.000000	 0.000000	 0.000000	 0.000000	 0.000000	 0.000000	 0.000000
 0.002474	 1.271180	 0.064152	-0.263139	-0.416832	-179.997100	-175.710500	 1.281519	-25.101350	 2.136880	-9.982227	-0.070815	-5.070759	 68.822780	 4.508581	 1.292262	 28.425850	-2.713146	 174.990400	 2.443960	 25.091610	-2.492135	-11.941930	 0.005546	 5.228302	 69.786790	-4.621725	-1.288183	 28.361890	 2.710176	 0.026908	 2.821597	 11.332810	-2.298229	 2.048432	 5.029936	 2.245227	-2.558319	-14.849410	-101.478000	 1.740671	 90.353380	 27.228130	 54.473430	-20.893120	 13.122270	 4.442580	-9.411775	 1.423927	 13.023310	 30.376080	-6.580301	 5.266122	 0.000000	 0.000000	 0.000000	 0.000000	 0.000000	 0.000000	 0.000000	 0.089846	-3.783161	 0.005928	 0.029727	 0.919454	-3.703534	 101.796200	-0.213313	-89.955440	-89.636560	 8.719593	 66.779590	-38.639010	 32.276200	 19.788790	 50.007370	-59.078690	-32.761570	 15.208500	 5.323790	 0.000000	 0.000000	 0.000000	 0.000000	 0.000000	 0.000000	 0.000000
 0.002269	 1.271182	 0.064104	-0.197885	-0.393036	-179.997700	-175.634300	 1.328856	-25.097060	 2.170825	-10.137460	-0.064879	-5.092021	 68.908880	 4.516553	 1.292262	 28.425850	-2.713146	 175.069000	 2.337914	 25.094070	-2.457133	-11.779030	 0.012735	 5.215477	 69.704040	-4.621228	-1.288183	 28.361890	 2.710176	 1.774525	 2.856951	-19.142710	-2.289152	 0.267200	 4.784710	 2.361867	-0.300535	-14.371560	-101.478000	 1.740663	 90.353380	 29.944730	 55.094810	-23.293200	 13.496160	 4.464816	-9.771408	-1.958807	 12.501820	 30.085600	-6.580301	 5.266122	 0.000000	 0.000000	 0.000000	 0.000000	 0.000000	 0.000000	 0.000000	 0.089846	-3.783161	 0.005928	 0.038199	 1.216789	-3.596076	 101.796200	-0.213312	-89.955450	-51.040690	 28.859910	 48.580700	-92.065340	 47.745710	 64.821030	 71.934720	-61.372310	 13.121390	 15.208500	 5.323790	 0.000000	 0.000000	 0.000000	 0.000000	 0.000000	 0.000000	 0.000000
 0.002081	 1.271212	 0.064060	-0.136747	-0.372329	-179.998300	-175.566500	 1.359280	-25.092820	 2.195559	-10.250470	-0.060508	-5.104126	 68.972790	 4.519529	 1.292262	 28.425850	-2.713146	 175.146100	 2.226982	 25.096290	-2.418446	-11.598740	 0.020571	 5.196130	 69.612230	-4.616316	-1.288183	 28.361890	 2.710176	 2.592299	 2.826309	-29.947960	-2.198926	-1.298914	 4.428213	 2.367761	 1.679673	-13.483140	-101.478000	 1.740664	 90.353400	 32.783760	 55.908030	-25.907640	 13.507450	 4.480943	-9.778318	-5.077000	 11.587450	 28.699420	-6.580301	 5.266122	 0.000000	 0.000000	 0.000000	 0.000000	 0.000000	 0.000000	 0.000000	 0.089846	-3.783161	 0.005928	 0.044469	 1.507278	-3.379605	 101.796200	-0.213322	-89.955460	-16.909020	 37.029020	 13.090820	-85.974800	 47.503820	 61.192200	 28.042240	-52.355350	 8.611095	 15.208500	 5.323790	 0.000000	 0.000000	 0.000000	 0.000000	 0.000000	 0.000000	 0.000000
 0.001871	 1.271274	 0.064009	-0.068412	-0.349661	-179.999000	-175.494600	 1.377499	-25.088190	 2.215887	-10.343280	-0.056868	-5.110073	 69.027140	 4.518739	 1.292262	 28.425850	-2.713146	 175.236100	 2.087697	 25.098790	-2.368294	-11.364680	 0.030566	 5.167319	 69.493090	-4.607042	-1.288183	 28.361890	 2.710176	 1.720040	 3.991749	-11.810710	-1.975973	-3.027012	 3.836598	 2.222920	 3.869918	-11.838320	-101.478000	 1.740670	 90.353390	 35.723930	 56.501130	-28.682250	 13.086650	 4.492105	-9.363811	-8.466317	 10.872060	 25.483180	-6.580301	 5.266122	 0.000000	 0.000000	 0.000000	 0.000000	 0.000000	 0.000000	 0.000000	 0.089846	-3.783161	 0.005928	 0.048329	 1.863811	-2.970459	 101.796200	-0.213290	-89.955470	-23.556290	 62.971630	 13.286990	-13.822130	 4.203982	 10.728540	-5.011600	-4.246119	 18.812180	 15.208500	 5.323790	 0.000000	 0.000000	 0.000000	 0.000000	 0.000000	 0.000000	 0.000000
 0.001687	 1.271365	 0.063959	-0.005679	-0.327418	-180.000000	-175.432600	 1.373971	-25.083650	 2.226171	-10.390220	-0.055015	-5.106591	 69.057560	 4.512562	 1.292262	 28.425850	-2.713146	 175.322700	 1.942196	 25.100890	-2.315263	-11.116740	 0.040897	 5.133994	 69.367000	-4.594929	-1.288183	 28.361890	 2.710176	 0.570209	 4.782905	 2.477689	-1.580476	-4.647811	 2.982607	 1.850415	 5.935833	-9.302558	-101.478000	 1.740672	 90.353390	 37.458750	 56.274790	-30.392090	 12.754080	 4.501109	-9.036117	-11.053320	 9.261505	 20.113770	-6.580301	 5.266122	 0.000000	 0.000000	 0.000000	 0.000000	 0.000000	 0.000000	 0.000000	 0.089846	-3.783161	 0.005928	 0.045607	 2.236911	-2.335719	 101.796200	-0.213314	-89.955450	-12.702160	 62.539120	 3.600807	-13.213900	 3.877776	 9.973030	-13.757040	-2.114273	 9.500629	 15.208500	 5.323790	 0.000000	 0.000000	 0.000000	 0.000000	 0.000000	 0.000000	 0.000000
 0.001029	 1.271274	 0.063692	 0.183378	-0.184082	 179.996200	-175.209900	 1.447324	-25.067330	 2.334771	-10.884990	-0.034975	-5.186719	 69.341560	 4.547799	 1.292262	 28.425850	-2.713146	 175.555800	 1.532694	 25.108410	-2.206879	-10.608680	 0.061318	 5.113297	 69.118460	-4.612221	-1.288183	 28.361890	 2.710176	-0.042180	 4.557364	-11.358790	 1.938950	-3.168264	-3.750958	-2.187784	 4.057957	 11.586940	-101.478000	 1.740675	 90.353390	 35.573970	 55.785980	-31.270710	 12.781850	 4.555778	-9.048554	-14.676820	 5.992428	-25.059870	-6.580301	 5.266122	 0.000000	 0.000000	 0.000000	 0.000000	 0.000000	 0.000000	 0.000000	 0.089846	-3.783161	 0.005928	-0.048379	 1.910612	 2.900709	 101.796200	-0.213308	-89.955460	-19.801650	 63.344560	 9.433011	-13.419750	 4.038564	 10.799950	-8.739026	 10.252490	-28.929360	 15.208500	 5.323790	 0.000000	 0.000000	 0.000000	 0.000000	 0.000000	 0.000000	 0.000000
 0.000852	 1.271186	 0.063641	 0.239833	-0.154819	 179.996100	-175.135100	 1.515341	-25.063010	 2.381000	-11.095090	-0.026156	-5.226507	 69.455640	 4.567801	 1.292262	 28.425850	-2.713146	 175.616900	 1.461825	 25.111310	-2.190405	-10.531310	 0.064348	 5.117602	 69.080580	-4.620753	-1.288183	 28.361890	 2.710176	-0.041331	 4.107676	-12.679110	 2.155972	-1.471278	-4.361864	-2.343447	 1.907086	 13.300590	-101.478000	 1.740673	 90.353390	 34.246380	 56.112120	-30.153140	 12.791150	 4.566967	-9.054691	-13.250750	 5.055884	-29.216350	-6.580301	 5.266122	 0.000000	 0.000000	 0.000000	 0.000000	 0.000000	 0.000000	 0.000000	 0.089846	-3.783161	 0.005928	-0.045254	 1.557222	 3.328974	 101.796200	-0.213315	-89.955440	-18.092560	 63.758080	 7.817794	-13.428560	 4.045962	 10.805280	-10.897460	 11.407130	-32.556640	 15.208500	 5.323790	 0.000000	 0.000000	 0.000000	 0.000000	 0.000000	 0.000000	 0.000000
 0.000659	 1.271143	 0.063588	 0.302469	-0.126704	 179.995000	-175.058800	 1.567444	-25.058280	 2.419617	-11.270370	-0.018670	-5.254293	 69.552330	 4.579373	 1.292262	 28.425850	-2.713146	 175.690700	 1.362842	 25.114330	-2.160985	-10.393030	 0.069690	 5.111358	 69.011120	-4.624765	-1.288183	 28.361890	 2.710176	 0.211383	 3.622612	-16.987310	 2.249528	 0.291159	-4.774863	-2.339610	-0.322005	 14.349240	-101.478000	 1.740668	 90.353390	 32.832660	 56.436630	-28.830880	 12.877090	 4.578918	-9.135618	-11.556320	 4.093996	-31.939960	-6.580301	 5.266122	 0.000000	 0.000000	 0.000000	 0.000000	 0.000000	 0.000000	 0.000000	 0.089846	-3.783161	 0.005928	-0.038444	 1.227707	 3.587021	 101.796200	-0.213313	-89.955440	-16.231470	 64.164700	 6.065276	-13.513890	 4.052011	 10.884780	-13.139680	 12.266820	-34.630120	 15.208500	 5.323790	 0.000000	 0.000000	 0.000000	 0.000000	 0.000000	 0.000000	 0.000000
 0.000476	 1.271134	 0.063534	 0.361990	-0.099104	 179.993800	-174.990100	 1.599429	-25.053540	 2.448866	-11.402970	-0.012916	-5.272270	 69.627080	 4.585392	 1.292262	 28.425850	-2.713146	 175.765400	 1.249550	 25.117210	-2.125049	-10.223960	 0.076119	 5.097427	 68.926090	-4.624486	-1.288183	 28.361890	 2.710176	 0.370226	 3.118432	-19.917570	 2.243823	 2.065530	-5.016841	-2.218227	-2.571836	 14.835810	-101.478000	 1.740679	 90.353400	 31.363640	 56.759080	-27.370530	 12.939960	 4.591821	-9.193756	-9.642419	 3.143713	-33.403400	-6.580301	 5.266122	 0.000000	 0.000000	 0.000000	 0.000000	 0.000000	 0.000000	 0.000000	 0.089846	-3.783161	 0.005928	-0.030042	 0.930283	 3.699225	 101.796200	-0.213314	-89.955450	-14.246050	 64.541180	 4.193751	-13.576390	 4.059375	 10.941620	-15.460460	 12.810470	-35.370830	 15.208500	 5.323790	 0.000000	 0.000000	 0.000000	 0.000000	 0.000000	 0.000000	 0.000000
 0.000379	 1.271142	 0.063486	 0.389813	-0.073834	 179.993000	-174.960700	 1.591434	-25.050640	 2.458609	-11.447120	-0.010993	-5.277654	 69.654920	 4.586825	 1.292262	 28.425850	-2.713146	 175.804100	 1.167557	 25.118480	-2.101738	-10.114190	 0.080237	 5.087945	 68.872300	-4.624254	-1.288183	 28.361890	 2.710176	 0.448068	 2.842636	-21.427390	 2.202275	 3.053233	-5.072976	-2.108040	-3.829175	 14.858770	-101.478000	 1.740676	 90.353390	 30.540940	 56.924930	-26.522290	 12.977050	 4.601852	-9.227352	-8.486023	 2.649271	-33.652420	-6.580301	 5.266122	 0.000000	 0.000000	 0.000000	 0.000000	 0.000000	 0.000000	 0.000000	 0.089846	-3.783161	 0.005928	-0.025205	 0.780963	 3.697014	 101.796200	-0.213306	-89.955470	-13.094690	 64.717490	 3.107818	-13.614320	 4.067316	 10.974790	-16.787310	 12.952070	-35.196670	 15.208500	 5.323790	 0.000000	 0.000000	 0.000000	 0.000000	 0.000000	 0.000000	 0.000000
